<?xml version="1.0" encoding="utf-8"?>
<!-- Generator: Adobe Illustrator 26.5.0, SVG Export Plug-In . SVG Version: 6.00 Build 0)  -->
<svg version="1.1" id="Réteg_1" xmlns="http://www.w3.org/2000/svg" xmlns:xlink="http://www.w3.org/1999/xlink" x="0px" y="0px"
	 viewBox="0 0 1092.73 1073.73" style="enable-background:new 0 0 1092.73 1073.73;" xml:space="preserve">
<style type="text/css">
	.st0{fill:#593F51;}
	.st1{fill:#DA5043;}
	.st2{fill:#D86B37;}
	.st3{fill:#7FBFC9;}
	.st4{fill:#619DA6;}
	.st5{fill:#24A1A7;}
	.st6{fill:#FBF9FA;}
	.st7{fill:#BEC6CB;}
	.st8{fill:#E6ECF0;}
	.st9{fill:#363940;}
	.st10{fill:#E7AB48;}
	.st11{fill:#5E6376;}
	.st12{fill:#FFFBEA;}
</style>
<g>
	<path class="st0" d="M552.58,1010.35L552.58,1010.35c-260.04,0-470.83-210.8-470.83-470.83v0c0-260.03,210.8-470.83,470.83-470.83
		h0c260.03,0,470.83,210.8,470.83,470.83v0C1023.41,799.55,812.62,1010.35,552.58,1010.35z"/>
	<path class="st1" d="M290.93,812.03c-21.2,0-38.4-15.26-38.4-34.09v-73.88c0-18.83,17.19-34.09,38.4-34.09h541.76
		c21.21,0,38.39,15.26,38.39,34.09v73.88c0,18.83-17.19,34.09-38.39,34.09H290.93z"/>
	<g>
		<g>
			<g>
				<path class="st2" d="M871.18,703.86c0-18.83-17.19-34.09-38.39-34.09H291.03c-21.2,0-38.4,15.26-38.4,34.09v37.09h618.55V703.86
					z"/>
			</g>
		</g>
	</g>
	
		<rect x="295.84" y="698.06" transform="matrix(-1.836970e-16 1 -1 -1.836970e-16 1107.8754 374.1334)" class="st3" width="142.06" height="85.89"/>
	
		<rect x="331.36" y="662.42" transform="matrix(-1.836970e-16 1 -1 -1.836970e-16 1072.2349 338.4928)" class="st4" width="71.03" height="85.89"/>
	<rect x="292.66" y="419.3" class="st5" width="424.42" height="90.62"/>
	<rect x="292.66" y="419.3" class="st4" width="424.42" height="45.31"/>
	<rect x="669.42" y="419.3" class="st6" width="18.98" height="90.62"/>
	<rect x="669.42" y="419.3" class="st7" width="18.98" height="45.31"/>
	<rect x="630.06" y="419.3" class="st6" width="18.98" height="90.62"/>
	<rect x="630.06" y="419.3" class="st7" width="18.98" height="45.31"/>
	<rect x="329.22" y="419.3" class="st6" width="18.98" height="90.62"/>
	<rect x="329.22" y="419.3" class="st7" width="18.98" height="45.31"/>
	<path class="st8" d="M722.77,521.91H329.9c-1.87,0-3.72,0.06-5.56,0.15V657.7c1.84,0.09,3.69,0.15,5.56,0.15h392.88
		c48.63,0,88.43-30.59,88.43-67.97C811.21,552.5,771.41,521.91,722.77,521.91z"/>
	<path class="st9" d="M817.83,558.43c-5.07-9.55-12.31-18.08-21.51-25.44c-18.75-14.99-43.53-23.21-69.77-23.21H322.63
		c-1.88,0-3.82,0.02-6.16,0.13l-4.81,0.2v16.6h411.01c22.37,0,43.42,6.75,59.27,18.93C797.45,557.58,806,573.3,806,589.86
		c0,16.57-8.55,32.35-24.07,44.28c-15.85,12.18-36.9,18.98-59.27,18.98H311.66v16.53l4.8,0.24c2.25,0.11,4.25,0.17,6.17,0.17h403.92
		c26.24,0,51.02-8.26,69.77-23.25c9.2-7.35,16.43-15.93,21.51-25.48c5.3-9.97,7.99-20.56,7.99-31.45
		C825.82,578.98,823.13,568.4,817.83,558.43z"/>
	<polygon class="st10" points="701.06,632.39 675.24,609.95 649.42,632.39 649.42,587.52 701.06,587.52 	"/>
	<rect x="329.26" y="273.64" class="st11" width="365.19" height="87"/>
	<rect x="329.26" y="273.64" class="st9" width="365.19" height="43.5"/>
	<rect x="358.29" y="273.64" class="st6" width="20.22" height="87"/>
	<rect x="396.24" y="273.64" class="st6" width="20.22" height="87"/>
	<rect x="646.01" y="273.64" class="st6" width="20.22" height="87"/>
	<rect x="358.29" y="273.64" class="st7" width="20.22" height="43.5"/>
	<rect x="396.24" y="273.64" class="st7" width="20.22" height="43.5"/>
	<rect x="646.01" y="273.64" class="st7" width="20.22" height="43.5"/>
	<rect x="428.67" y="216.89" class="st4" width="308.91" height="56.56"/>
	<rect x="428.67" y="245.17" class="st5" width="308.91" height="28.28"/>
	<circle class="st6" cx="707.66" cy="245.17" r="18.19"/>
	<g>
		<path class="st7" d="M707.71,227.13c-10.04,0-18.19,7.79-18.19,18.19h36.38C725.9,234.92,717.75,227.13,707.71,227.13z"/>
	</g>
	<rect x="526.84" y="216.89" class="st11" width="82.75" height="56.56"/>
	<rect x="526.84" y="216.89" class="st9" width="82.75" height="28.28"/>
	<path class="st12" d="M753.19,373.27H359.23v31.89h393.96c12.79,0,16.94-7.14,16.94-15.94
		C770.14,380.41,765.99,373.27,753.19,373.27z"/>
	<path class="st1" d="M756.52,360.64H355.08v12.7h397.75c12.93,0,17.12,7.14,17.12,15.95c0,8.81-4.19,15.94-17.12,15.94H355.08
		v14.14h401.43c13.22,0,23.94-13.15,23.94-29.36C780.46,373.78,769.74,360.64,756.52,360.64z"/>
	<polygon class="st9" points="480.32,427.59 454.5,405.16 428.69,427.59 428.69,382.73 480.32,382.73 	"/>
</g>
<rect x="3774.26" y="-2300.61" class="st5" width="941.67" height="941.67"/>
<rect x="1537.62" y="-2542.16" class="st0" width="941.67" height="941.67"/>
<rect x="2521.62" y="-2542.16" class="st1" width="941.67" height="941.67"/>
<rect x="569.88" y="-2585.51" class="st10" width="941.67" height="941.67"/>
</svg>
