<svg width="21" height="20" viewBox="0 0 21 20" fill="none" xmlns="http://www.w3.org/2000/svg">
<path d="M10.0447 0C4.52468 0 0.0446777 4.48 0.0446777 10C0.0446777 15.52 4.52468 20 10.0447 20C15.5647 20 20.0447 15.52 20.0447 10C20.0447 4.48 15.5647 0 10.0447 0ZM10.0447 3C11.7047 3 13.0447 4.34 13.0447 6C13.0447 7.66 11.7047 9 10.0447 9C8.38468 9 7.04468 7.66 7.04468 6C7.04468 4.34 8.38468 3 10.0447 3ZM10.0447 17.2C7.54468 17.2 5.33468 15.92 4.04468 13.98C4.07468 11.99 8.04468 10.9 10.0447 10.9C12.0347 10.9 16.0147 11.99 16.0447 13.98C14.7547 15.92 12.5447 17.2 10.0447 17.2Z" fill="white"/>
</svg>
