<svg width="25" height="24" viewBox="0 0 25 24" fill="none" xmlns="http://www.w3.org/2000/svg">
<circle cx="12.0449" cy="12" r="12" fill="#174B85"/>
<g clip-path="url(#clip0_420_75)">
<path d="M12.0449 2C6.52492 2 2.04492 6.48 2.04492 12C2.04492 17.52 6.52492 22 12.0449 22C17.5649 22 22.0449 17.52 22.0449 12C22.0449 6.48 17.5649 2 12.0449 2ZM12.0449 5C13.7049 5 15.0449 6.34 15.0449 8C15.0449 9.66 13.7049 11 12.0449 11C10.3849 11 9.04492 9.66 9.04492 8C9.04492 6.34 10.3849 5 12.0449 5ZM12.0449 19.2C9.54492 19.2 7.33492 17.92 6.04492 15.98C6.07492 13.99 10.0449 12.9 12.0449 12.9C14.0349 12.9 18.0149 13.99 18.0449 15.98C16.7549 17.92 14.5449 19.2 12.0449 19.2Z" fill="white"/>
</g>
<defs>
<clipPath id="clip0_420_75">
<rect width="24" height="24" fill="white" transform="translate(0.0449219)"/>
</clipPath>
</defs>
</svg>
